<?xml version="1.0" standalone="no"?>
<!DOCTYPE svg PUBLIC "-//W3C//DTD SVG 20010904//EN"
 "http://www.w3.org/TR/2001/REC-SVG-20010904/DTD/svg10.dtd">
<svg version="1.0" xmlns="http://www.w3.org/2000/svg"
 width="512.000000pt" height="512.000000pt" viewBox="0 0 512.000000 512.000000"
 preserveAspectRatio="xMidYMid meet">
<metadata>
Created by potrace 1.14, written by Peter Selinger 2001-2017
</metadata>
<g transform="translate(0.000000,512.000000) scale(0.100000,-0.100000)"
fill="#000000" stroke="none">
<path d="M1948 5115 c-2 -2 -28 -5 -58 -8 -85 -9 -226 -54 -315 -100 -99 -51
-215 -163 -263 -254 -48 -92 -73 -200 -72 -313 0 -52 2 -107 4 -122 4 -26 3
-26 -67 21 -229 152 -473 166 -692 41 -101 -58 -222 -173 -303 -289 -57 -81
-62 -105 -32 -143 25 -33 60 -39 118 -21 26 8 58 16 72 19 14 2 45 9 70 14 85
19 231 32 355 32 159 0 155 3 70 -41 -313 -162 -503 -459 -511 -801 -3 -107 1
-146 27 -243 18 -69 94 -92 139 -43 10 11 59 75 107 141 48 66 95 129 104 140
68 83 190 227 220 260 21 22 50 55 66 73 l28 32 -2 -97 c-4 -199 74 -374 246
-555 64 -67 81 -80 109 -80 23 -1 41 7 58 24 28 27 27 22 39 318 8 212 14 313
19 318 7 6 208 -303 259 -398 115 -215 186 -376 267 -605 23 -66 45 -127 48
-135 3 -8 6 -19 8 -25 1 -5 12 -41 24 -80 20 -69 94 -356 104 -405 45 -232 85
-486 101 -645 3 -33 8 -80 10 -105 3 -25 7 -88 10 -140 3 -52 8 -96 10 -98 9
-10 -16 -41 -33 -40 -24 1 -209 -13 -235 -18 -12 -2 -49 -6 -82 -9 -33 -3 -67
-8 -75 -10 -8 -2 -35 -7 -60 -10 -382 -53 -812 -199 -1064 -362 -124 -80 -260
-205 -272 -251 -9 -32 15 -82 43 -93 15 -5 845 -9 2043 -9 l2019 0 26 23 c33
28 36 74 6 115 -56 79 -229 211 -381 289 -165 86 -483 203 -550 203 -38 0 -72
-33 -75 -72 -4 -55 18 -75 113 -103 135 -40 298 -103 397 -153 81 -40 225
-127 225 -135 0 -2 -803 -3 -1785 -3 -982 0 -1785 3 -1785 6 0 9 178 113 255
150 215 100 527 191 790 230 44 7 89 14 100 16 11 2 44 6 75 9 31 3 65 7 77 9
134 26 762 27 958 2 17 -2 59 -7 95 -11 36 -4 74 -9 85 -11 39 -8 110 -16 132
-16 27 -1 72 27 74 45 1 6 3 22 4 35 1 13 -9 34 -24 51 -21 22 -39 29 -91 36
-36 5 -68 9 -72 10 -5 2 -22 3 -39 4 l-30 1 6 113 c3 61 7 130 9 152 9 95 18
179 21 209 3 17 7 55 10 84 4 29 8 63 11 75 2 12 6 39 9 61 7 51 35 204 61
331 4 21 61 249 68 275 78 273 191 558 304 765 54 99 133 227 138 223 1 -2 6
-66 9 -143 14 -320 13 -318 48 -337 49 -26 79 -17 136 42 139 143 206 274 225
438 l11 94 20 -24 c110 -126 210 -249 295 -363 56 -75 108 -139 115 -141 59
-23 99 0 121 69 22 70 27 234 9 324 -28 148 -122 320 -227 419 -55 52 -169
134 -187 134 -5 0 -13 5 -17 11 -17 28 341 -6 467 -44 58 -18 89 -13 116 19
33 36 29 62 -21 134 -119 171 -299 298 -451 318 -138 18 -253 -7 -379 -83 -32
-19 -59 -35 -60 -35 -1 0 -2 42 -3 94 -4 333 -248 554 -640 581 -63 4 -78 -2
-98 -39 -25 -46 -15 -71 57 -146 35 -36 86 -94 113 -130 56 -73 147 -221 141
-228 -3 -2 -18 5 -35 17 -16 12 -56 33 -88 47 -282 125 -634 71 -845 -129 -46
-43 -58 -72 -47 -113 10 -36 37 -51 104 -58 132 -14 153 -17 190 -22 86 -11
292 -45 325 -53 19 -5 48 -12 64 -16 l30 -6 -43 -24 c-136 -78 -242 -222 -300
-409 -28 -89 -27 -127 2 -154 27 -25 82 -29 112 -9 44 30 358 188 363 183 3
-4 0 -6 -6 -6 -7 0 -12 -4 -12 -10 0 -5 -18 -35 -41 -67 -212 -301 -438 -815
-545 -1241 l-29 -114 33 -29 c39 -35 72 -37 106 -7 19 18 34 55 61 155 34 127
112 364 140 428 7 17 29 71 50 120 136 328 342 662 543 879 28 31 52 53 53 49
10 -85 5 -116 -21 -147 -108 -125 -291 -436 -372 -631 -59 -142 -76 -189 -134
-362 -35 -105 -65 -202 -68 -215 -3 -13 -21 -90 -41 -173 -19 -82 -38 -163
-40 -180 -3 -16 -10 -55 -16 -85 -6 -30 -12 -67 -14 -82 -2 -15 -8 -53 -14
-85 -5 -32 -13 -83 -17 -113 -7 -59 -7 -57 -18 -175 -5 -44 -10 -93 -12 -110
-2 -16 -7 -77 -10 -135 -4 -58 -7 -114 -8 -125 -1 -16 -8 -20 -31 -18 -17 1
-56 2 -87 4 -31 1 -61 5 -66 8 -5 3 -12 51 -15 106 -4 55 -9 123 -12 150 -13
139 -17 172 -20 195 -2 14 -6 48 -9 75 -6 44 -9 64 -22 137 -1 9 -5 38 -9 65
-4 26 -13 80 -20 118 -8 39 -16 84 -19 100 -23 130 -97 416 -157 605 -115 362
-289 745 -467 1029 -75 121 -181 273 -196 283 -25 17 5 17 35 0 47 -26 351
-184 424 -220 80 -40 134 -28 149 33 11 45 -38 199 -103 319 -76 142 -163 232
-293 301 -38 21 -57 36 -48 39 56 18 274 59 425 81 23 3 50 7 60 9 24 4 111
15 178 21 174 18 170 16 189 56 20 40 13 70 -26 110 -164 171 -379 251 -651
245 -117 -3 -155 -7 -229 -30 -100 -30 -207 -81 -278 -132 -27 -19 -48 -31
-48 -28 0 10 63 119 118 204 70 108 138 195 229 292 83 87 92 120 48 164 -20
20 -33 24 -75 23 -27 -1 -51 -3 -52 -4z m-164 -207 c-5 -7 -31 -44 -59 -83
-102 -138 -213 -339 -275 -498 -23 -59 -28 -65 -34 -45 -4 12 -9 70 -11 128
-6 167 29 263 130 365 64 63 175 126 253 144 2 1 0 -5 -4 -11z m671 -463 c60
-16 178 -65 172 -71 -3 -3 -57 -12 -182 -29 -195 -26 -573 -111 -736 -165 -34
-11 -64 -18 -67 -15 -9 9 122 126 195 175 87 57 180 95 279 114 87 18 259 13
339 -9z m1250 -170 c126 -76 185 -186 185 -346 0 -77 -11 -102 -26 -56 -23 76
-130 271 -211 385 -44 61 -45 62 -16 52 15 -6 46 -22 68 -35z m-2765 4 c74
-24 240 -127 240 -149 0 -4 -24 -3 -52 1 -186 30 -527 32 -671 4 -39 -8 -28 6
47 60 148 106 286 132 436 84z m1008 -324 c84 -27 130 -54 196 -115 62 -57
154 -200 129 -200 -5 0 -180 90 -388 200 -38 20 -108 57 -154 80 -100 52 -94
58 51 58 71 -1 114 -7 166 -23z m1430 -37 c41 -15 99 -42 129 -60 54 -32 157
-117 150 -124 -1 -2 -25 3 -52 12 -164 49 -348 90 -540 120 -60 9 -117 18
-125 19 -8 2 -19 4 -25 5 -21 2 27 21 97 40 108 28 268 23 366 -12z m-2230
-49 c-76 -66 -292 -287 -393 -403 -78 -89 -245 -297 -252 -313 -12 -31 -22 -9
-17 40 8 80 40 190 78 265 98 195 252 326 467 396 53 17 107 32 119 33 l22 2
-24 -20z m423 -106 c36 -38 87 -95 114 -128 28 -33 52 -62 55 -65 30 -30 179
-249 252 -369 293 -491 522 -1164 613 -1806 3 -22 8 -51 10 -65 3 -14 7 -45
10 -70 3 -25 8 -61 10 -80 8 -63 24 -233 30 -322 l6 -88 -90 0 c-50 0 -91 3
-92 8 -3 24 -7 69 -13 162 -8 123 -14 182 -21 230 -3 19 -7 58 -10 85 -17 157
-60 426 -90 555 -86 378 -139 557 -252 845 -154 391 -357 738 -582 995 -29 33
-31 39 -28 108 1 39 5 72 8 72 3 0 35 -30 70 -67z m2962 27 c30 -11 76 -36
103 -55 l49 -35 -85 7 c-139 11 -364 5 -447 -11 -33 -7 -29 -1 24 36 111 76
248 98 356 58z m-3207 -117 c-3 -60 -9 -178 -12 -263 -4 -85 -8 -180 -9 -210
-2 -30 -3 -72 -4 -93 -1 -47 -11 -42 -51 27 -70 123 -93 266 -63 385 21 83
117 261 140 261 2 0 2 -48 -1 -107z m2320 -141 c-3 -5 -56 -35 -118 -67 -216
-111 -303 -157 -316 -167 -26 -22 -24 3 4 44 68 100 152 159 259 183 63 15
179 19 171 7z m608 -113 c204 -76 365 -271 404 -489 l10 -55 -26 31 c-15 17
-58 69 -96 115 -101 124 -179 210 -296 327 -112 113 -112 115 4 71z m-219
-163 c19 -41 38 -91 42 -112 17 -96 -6 -219 -56 -297 l-21 -32 -1 35 c0 19 -2
64 -4 100 -14 298 -15 391 -5 385 6 -3 26 -39 45 -79z"/>
</g>
</svg>
